#!OML:ASF I:\Actors\actors\Patient Classification 1\Patient 1\Session 1\Subject1.ASF
:FULLY-SPECIFIED
:DEGREES
734
root 0.685987 17.5204 9.48347 8.30056 -2.78271 -8.85949
lowerback 3.06029 0.806861 7.65015
upperback -10.9561 1.9852 1.07974
thorax -13.5284 0.204707 -3.36014
lowerneck -13.5805 -4.58289 -0.699047
upperneck 32.7186 -7.94706 3.62399
head 13.4875 -3.12123 0.313236
rclavicle -1.0138e-014 1.11319e-014
rhumerus -30.3481 57.7429 -91.0704
rradius 130.043
rwrist -10.5818
rhand 10.9088 -19.9076
rfingers 7.12502
rthumb 35.9878 313.773
lclavicle -1.0138e-014 1.11319e-014
lhumerus -47.7146 -66.1645 99.0374
lradius 121.658
lwrist 52.2443
lhand -14.1675 -21.984
lfingers 7.12502
lthumb 11.9676 7.65385
rfemur -2.37294 23.547 26.6091
rtibia 2.17338
rfoot -13.3321 -26.1598
rtoes 9.40895
lfemur 7.38425 -39.9493 -13.6974
ltibia -4.38676
lfoot -17.3751 49.0086
ltoes 4.54651
735
root 0.684687 17.5188 9.48686 8.28249 -2.77887 -8.88585
lowerback 1.85935 0.848622 7.0112
upperback -10.3279 1.87954 1.57189
thorax -12.0566 0.32201 -2.4258
lowerneck -13.8487 -4.60184 -1.59735
upperneck 32.483 -7.88727 4.17517
head 13.5147 -3.12868 0.685351
rclavicle 3.37934e-015 -3.10104e-014
rhumerus -29.8709 56.9043 -89.8704
rradius 129.935
rwrist -10.1869
rhand 9.97186 -19.7337
rfingers 7.12502
rthumb 35.0997 313.734
lclavicle 3.37934e-015 -3.10104e-014
lhumerus -45.9022 -65.7958 97.7943
lradius 121.343
lwrist 50.3478
lhand -15.3959 -23.3502
lfingers 7.12502
lthumb 10.7829 6.35302
rfemur -2.34593 23.5101 26.6445
rtibia 2.16197
rfoot -13.3854 -26.1186
rtoes 9.54091
lfemur 7.45265 -40.0591 -13.7243
ltibia -4.37993
lfoot -17.554 49.0973
ltoes 4.67082
736
root 0.683756 17.517 9.49126 8.23554 -2.72072 -8.8641
lowerback 1.46066 0.874122 6.80834
upperback -10.1184 1.86096 1.70269
thorax -11.5724 0.361195 -2.16193
lowerneck -14.357 -4.56217 -2.34234
upperneck 33.1481 -7.93294 4.94166
head 14.0023 -3.10838 1.0989
rclavicle 3.37934e-015 1.11319e-014
rhumerus -30.0609 56.6455 -89.5691
rradius 129.814
rwrist -9.29085
rhand 7.15387 -20.2634
rfingers 7.12502
rthumb 32.4221 312.616
lclavicle 3.37934e-015 1.11319e-014
lhumerus -45.7706 -65.7287 97.6099
lradius 121.086
lwrist 47.83
lhand -17.0916 -25.244
lfingers 7.12502
lthumb 9.14691 4.53768
rfemur -2.26782 23.3796 26.6425
rtibia 2.13608
rfoot -13.4034 -26.0618
rtoes 9.45011
lfemur 7.51979 -40.1634 -13.8133
ltibia -4.33423
lfoot -17.6885 49.1147
ltoes 4.89291
737
root 0.682717 17.5163 9.49535 8.17222 -2.64225 -8.84631
lowerback 1.07942 0.899097 6.68006
upperback -9.89888 1.84502 1.78489
thorax -11.0889 0.390165 -1.99361
lowerneck -14.6625 -4.52014 -2.50839
upperneck 33.6434 -7.91199 5.0899
head 14.3102 -3.08032 1.18737
rclavicle 3.926e-015 -1.70955e-014
rhumerus -31.0796 55.6734 -90.0248
rradius 129.484
rwrist -8.07249
rhand 4.56038 -20.3939
rfingers 7.12502
rthumb 29.9506 312.01
lclavicle 3.926e-015 -1.70955e-014
lhumerus -45.5353 -65.6669 97.251
lradius 120.731
lwrist 44.4607
lhand -19.3131 -28.1457
lfingers 7.12502
lthumb 7.00288 1.71846
rfemur -2.16671 23.2755 26.6618
rtibia 2.12746
rfoot -13.4533 -26.0336
rtoes 9.40571
lfemur 7.58292 -40.1982 -13.8789
ltibia -4.29677
lfoot -17.736 49.0576
ltoes 5.01075
738
root 0.680642 17.5168 9.49888 8.12475 -2.56306 -8.91375
lowerback 0.811808 0.924889 6.65203
upperback -9.75614 1.85258 1.86685
thorax -10.7638 0.414111 -1.8859
lowerneck -14.612 -4.55009 -2.52689
upperneck 33.8027 -7.91352 4.95187
head 14.3639 -3.09936 1.13681
rclavicle -6.85807e-015 9.14409e-015
rhumerus -32.6834 54.3268 -90.9922
rradius 129.015
rwrist -7.17821
rhand 2.31632 -20.3866
rfingers 7.12502
rthumb 27.8071 311.651
lclavicle -6.85807e-015 9.14409e-015
lhumerus -45.8259 -65.6107 97.3252
lradius 120.245
lwrist 39.6853
lhand -22.0594 -31.5357
lfingers 7.12502
lthumb 4.3514 -1.60042
rfemur -2.1067 23.2712 26.7858
rtibia 2.18553
rfoot -13.5331 -26.0815
rtoes 9.58313
lfemur 7.62277 -40.204 -13.8152
ltibia -4.27841
lfoot -17.6376 49.0201
ltoes 4.73335
739
root 0.678312 17.5175 9.5026 8.10182 -2.45964 -8.99507
lowerback 0.693479 0.920135 6.65213
upperback -9.73503 1.84128 1.94619
thorax -10.6716 0.416466 -1.79744
lowerneck -14.721 -4.57037 -2.70738
upperneck 34.3731 -7.95427 4.99664
head 14.6658 -3.11888 1.18122
rclavicle -3.42904e-015 -2.42517e-014
rhumerus -34.5425 53.0172 -92.2165
rradius 128.463
rwrist -6.68101
rhand 0.597763 -20.4629
rfingers 7.12502
rthumb 26.1628 311.32
lclavicle -3.42904e-015 -2.42517e-014
lhumerus -46.674 -65.4602 97.8495
lradius 119.627
lwrist 33.9692
lhand -25.0803 -34.3298
lfingers 7.12502
lthumb 1.43402 -4.3549
rfemur -2.09414 23.2498 26.9162
rtibia 2.27963
rfoot -13.6491 -26.127
rtoes 9.88088
lfemur 7.56757 -40.105 -13.6646
ltibia -4.23141
lfoot -17.5069 48.8759
ltoes 4.4284
740
root 0.675871 17.5178 9.5061 8.08223 -2.36692 -9.01871
lowerback 0.649344 0.904474 6.61729
upperback -9.77219 1.82196 2.01075
thorax -10.6918 0.412612 -1.70603
lowerneck -14.7364 -4.53745 -2.72147
upperneck 34.9338 -7.89524 4.85279
head 14.9212 -3.10295 1.13897
rclavicle -7.60351e-015 1.70955e-014
rhumerus -36.5163 51.71 -93.5032
rradius 127.896
rwrist -6.3946
rhand -0.318238 -20.5219
rfingers 7.12502
rthumb 25.2855 311.134
lclavicle -7.60351e-015 1.70955e-014
lhumerus -47.521 -65.1373 98.3046
lradius 118.971
lwrist 29.3718
lhand -27.715 -36.0127
lfingers 7.12502
lthumb -1.11061 -6.03585
rfemur -2.09317 23.1504 26.9629
rtibia 2.35043
rfoot -13.6832 -26.1108
rtoes 9.95117
lfemur 7.47805 -39.9775 -13.5594
ltibia -4.16234
lfoot -17.6682 48.6646
ltoes 4.75704
741
root 0.673842 17.5179 9.50891 8.03824 -2.32525 -8.96647
lowerback 0.675153 0.911767 6.54375
upperback -9.82101 1.83439 2.03045
thorax -10.7638 0.423415 -1.64562
lowerneck -14.7438 -4.52355 -2.6791
upperneck 35.6191 -7.87498 4.66145
head 15.2359 -3.10064 1.06078
rclavicle 7.95139e-016 -1.17283e-014
rhumerus -38.4783 50.2736 -94.6953
rradius 127.406
rwrist -6.63398
rhand -0.290893 -20.349
rfingers 7.12502
rthumb 25.3117 311.311
lclavicle 7.95139e-016 -1.17283e-014
lhumerus -48.0957 -64.7089 98.4355
lradius 118.491
lwrist 27.9773
lhand -28.9608 -36.5995
lfingers 7.12502
lthumb -2.31384 -6.63227
rfemur -2.07178 23.0036 26.9167
rtibia 2.39059
rfoot -13.6076 -26.0642
rtoes 9.54333
lfemur 7.49006 -39.9616 -13.6298
ltibia -4.11651
lfoot -17.8429 48.5759
ltoes 5.06704
742
root 0.67254 17.5175 9.51205 7.95241 -2.25501 -8.89422
lowerback 1.03204 0.915417 6.65424
upperback -10.0156 1.87946 1.89389
thorax -11.1965 0.410961 -1.86411
lowerneck -14.6962 -4.52236 -2.5514
upperneck 36.4919 -7.95236 4.55482
head 15.6447 -3.11395 0.98757
rclavicle 3.23025e-015 1.98785e-014
rhumerus -40.6562 48.6254 -96.2533
rradius 126.943
rwrist -7.24298
rhand 0.419971 -20.0959
rfingers 7.12502
rthumb 25.9926 311.662
lclavicle 3.23025e-015 1.98785e-014
lhumerus -48.9946 -64.3206 98.6811
lradius 118.261
lwrist 29.7753
lhand -28.5851 -36.1245
lfingers 7.12502
lthumb -1.95101 -6.15363
rfemur -1.98443 22.8184 26.8724
rtibia 2.39187
rfoot -13.5326 -26.0238
rtoes 8.93899
lfemur 7.59807 -40.0141 -13.7991
ltibia -4.08906
lfoot -17.5596 48.578
ltoes 4.53877
743
root 0.671135 17.5167 9.51558 7.86617 -2.1293 -8.88248
lowerback 1.81154 0.914255 7.12873
upperback -10.4442 1.98129 1.54876
thorax -12.1529 0.354022 -2.527
lowerneck -14.5506 -4.5319 -2.37367
upperneck 37.5576 -8.16716 4.65376
head 16.161 -3.14653 0.972408
rclavicle -9.93923e-016 1.27222e-014
rhumerus -43.2827 46.7785 -98.4778
rradius 126.453
rwrist -7.61259
rhand 1.04729 -19.94
rfingers 7.12502
rthumb 26.5931 311.907
lclavicle -9.93923e-016 1.27222e-014
lhumerus -50.8295 -64.0643 99.4921
lradius 118.176
lwrist 32.8264
lhand -27.4486 -34.857
lfingers 7.12502
lthumb -0.853375 -4.87891
rfemur -1.86652 22.7403 26.916
rtibia 2.37566
rfoot -13.5808 -26.0573
rtoes 8.95004
lfemur 7.69912 -40.114 -13.8881
ltibia -4.05275
lfoot -17.1531 48.5882
ltoes 3.8489
